<svg xmlns="http://www.w3.org/2000/svg" width="1067.935791015625" height="728.794677734375" viewBox="-449.46136474609375 -282.39306640625 1067.935791015625 728.794677734375"><title>Neo4j Graph Visualization</title><desc>Created using Neo4j (http://www.neo4j.com/)</desc><g class="layer relationships"><g class="relationship" transform="translate(330.5388409855232 -5.503240445495862) rotate(526.2589248384832)"><path class="outline" fill="#A5ABB6" stroke="none" d="M 40 0.5 L 50.19390453021684 0.5 L 50.19390453021684 -0.5 L 40 -0.5 Z M 75.76421703021684 0.5 L 85.95812156043368 0.5 L 85.95812156043368 3.5 L 92.95812156043368 0 L 85.95812156043368 -3.5 L 85.95812156043368 -0.5 L 75.76421703021684 -0.5 Z"/><text text-anchor="middle" pointer-events="none" font-size="8px" fill="#000000" x="62.97906078021684" y="3" transform="rotate(180 62.97906078021684 0)" font-family="sans-serif">est_à</text></g><g class="relationship" transform="translate(290.34879308568156 -103.64220488375028) rotate(484.44231403664656)"><path class="outline" fill="#A5ABB6" stroke="none" d="M 40 0.5 L 62.3626796512371 0.5 L 62.3626796512371 -0.5 L 40 -0.5 Z M 87.9329921512371 0.5 L 110.2956718024742 0.5 L 110.2956718024742 3.5 L 117.2956718024742 0 L 110.2956718024742 -3.5 L 110.2956718024742 -0.5 L 87.9329921512371 -0.5 Z"/><text text-anchor="middle" pointer-events="none" font-size="8px" fill="#000000" x="75.1478359012371" y="3" transform="rotate(180 75.1478359012371 0)" font-family="sans-serif">est_à</text></g><g class="relationship" transform="translate(254.94337335249656 258.95873333258146) rotate(252.7375359464342)"><path class="outline" fill="#A5ABB6" stroke="none" d="M 40 0.5 L 40.086968830208804 0.5 L 40.086968830208804 -0.5 L 40 -0.5 Z M 58.536187580208804 0.5 L 58.62315641041761 0.5 L 58.62315641041761 3.5 L 65.62315641041761 0 L 58.62315641041761 -3.5 L 58.62315641041761 -0.5 L 58.536187580208804 -0.5 Z"/><text text-anchor="middle" pointer-events="none" font-size="8px" fill="#000000" x="49.311578205208804" y="3" transform="rotate(180 49.311578205208804 0)" font-family="sans-serif">e…</text></g><g class="relationship" transform="translate(-22.945255780046587 152.7319766381885) rotate(263.26180848970773)"><path class="outline" fill="#A5ABB6" stroke="none" d="M 40 0.5 L 43.5341515887801 0.5 L 43.5341515887801 -0.5 L 40 -0.5 Z M 69.1044640887801 0.5 L 72.6386156775602 0.5 L 72.6386156775602 3.5 L 79.6386156775602 0 L 72.6386156775602 -3.5 L 72.6386156775602 -0.5 L 69.1044640887801 -0.5 Z"/><text text-anchor="middle" pointer-events="none" font-size="8px" fill="#000000" x="56.3193078387801" y="3" transform="rotate(180 56.3193078387801 0)" font-family="sans-serif">est_à</text></g><g class="relationship" transform="translate(-26.184086901372496 -228.5635174923307) rotate(454.1972331969914)"><path class="outline" fill="#A5ABB6" stroke="none" d="M 40 0.5 L 42.22048931076469 0.5 L 42.22048931076469 -0.5 L 40 -0.5 Z M 67.79080181076469 0.5 L 70.01129112152938 0.5 L 70.01129112152938 3.5 L 77.01129112152938 0 L 70.01129112152938 -3.5 L 70.01129112152938 -0.5 L 67.79080181076469 -0.5 Z"/><text text-anchor="middle" pointer-events="none" font-size="8px" fill="#000000" x="55.00564556076469" y="3" transform="rotate(180 55.00564556076469 0)" font-family="sans-serif">est_à</text></g><g class="relationship" transform="translate(-188.21688380231217 -148.98421680229586) rotate(458.18300071381634)"><path class="outline" fill="#A5ABB6" stroke="none" d="M 40 0.5 L 57.43434298403801 0.5 L 57.43434298403801 -0.5 L 40 -0.5 Z M 83.00465548403801 0.5 L 100.43899846807602 0.5 L 100.43899846807602 3.5 L 107.43899846807602 0 L 100.43899846807602 -3.5 L 100.43899846807602 -0.5 L 83.00465548403801 -0.5 Z"/><text text-anchor="middle" pointer-events="none" font-size="8px" fill="#000000" x="70.21949923403801" y="3" transform="rotate(180 70.21949923403801 0)" font-family="sans-serif">est_à</text></g><g class="relationship" transform="translate(-374.78165459424497 -44.082688166787186) rotate(465.28038377145356)"><path class="outline" fill="#A5ABB6" stroke="none" d="M 40 0.5 L 41.92108144894266 0.5 L 41.92108144894266 -0.5 L 40 -0.5 Z M 67.49139394894266 0.5 L 69.41247539788532 0.5 L 69.41247539788532 3.5 L 76.41247539788532 0 L 69.41247539788532 -3.5 L 69.41247539788532 -0.5 L 67.49139394894266 -0.5 Z"/><text text-anchor="middle" pointer-events="none" font-size="8px" fill="#000000" x="54.70623769894266" y="3" transform="rotate(180 54.70623769894266 0)" font-family="sans-serif">est_à</text></g><g class="relationship" transform="translate(-43.772162854102405 398.1625631417498) rotate(268.05479868665395)"><path class="outline" fill="#A5ABB6" stroke="none" d="M 40 0.5 L 51.70548456119906 0.5 L 51.70548456119906 -0.5 L 40 -0.5 Z M 77.27579706119906 0.5 L 88.98128162239811 0.5 L 88.98128162239811 3.5 L 95.98128162239811 0 L 88.98128162239811 -3.5 L 88.98128162239811 -0.5 L 77.27579706119906 -0.5 Z"/><text text-anchor="middle" pointer-events="none" font-size="8px" fill="#000000" x="64.49064081119906" y="3" transform="rotate(180 64.49064081119906 0)" font-family="sans-serif">est_à</text></g><g class="relationship" transform="translate(317.29781878833893 377.8201988001049) rotate(288.8976915029742)"><path class="outline" fill="#A5ABB6" stroke="none" d="M 40 0.5 L 96.00288754124733 0.5 L 96.00288754124733 -0.5 L 40 -0.5 Z M 121.57320004124733 0.5 L 177.57608758249467 0.5 L 177.57608758249467 3.5 L 184.57608758249467 0 L 177.57608758249467 -3.5 L 177.57608758249467 -0.5 L 121.57320004124733 -0.5 Z"/><text text-anchor="middle" pointer-events="none" font-size="8px" fill="#000000" x="108.78804379124733" y="3" font-family="sans-serif">est_à</text></g><g class="relationship" transform="translate(574.4743692753361 81.5540376497317) rotate(466.4778846277259)"><path class="outline" fill="#A5ABB6" stroke="none" d="M 40 0.5 L 45.071474175096455 0.5 L 45.071474175096455 -0.5 L 40 -0.5 Z M 45.071474175096455 0.5 L 50.14294835019291 0.5 L 50.14294835019291 3.5 L 57.14294835019291 0 L 50.14294835019291 -3.5 L 50.14294835019291 -0.5 L 45.071474175096455 -0.5 Z"/><text text-anchor="middle" pointer-events="none" font-size="8px" fill="#000000" x="45.071474175096455" y="3" transform="rotate(180 45.071474175096455 0)" font-family="sans-serif"/></g><g class="relationship" transform="translate(434.4734127719583 402.40161094715523) rotate(316.3681129289754)"><path class="outline" fill="#A5ABB6" stroke="none" d="M 40 0.5 L 64.01249921166176 0.5 L 64.01249921166176 -0.5 L 40 -0.5 Z M 89.58281171166176 0.5 L 113.59531092332352 0.5 L 113.59531092332352 3.5 L 120.59531092332352 0 L 113.59531092332352 -3.5 L 113.59531092332352 -0.5 L 89.58281171166176 -0.5 Z"/><text text-anchor="middle" pointer-events="none" font-size="8px" fill="#000000" x="76.79765546166176" y="3" font-family="sans-serif">est_à</text></g><g class="relationship" transform="translate(201.38610294077924 26.078911862806336) rotate(538.1160093161297)"><path class="outline" fill="#A5ABB6" stroke="none" d="M 40 1.5 L 102.6317154158804 1.5 L 102.6317154158804 -1.5 L 40 -1.5 Z M 126.8660904158804 1.5 L 189.4978058317608 1.5 L 189.4978058317608 4.5 L 198.4978058317608 0 L 189.4978058317608 -4.5 L 189.4978058317608 -1.5 L 126.8660904158804 -1.5 Z"/><text text-anchor="middle" pointer-events="none" font-size="8px" fill="#000000" x="114.7489029158804" y="3" transform="rotate(180 114.7489029158804 0)" font-family="sans-serif">route</text></g><g class="relationship" transform="translate(201.38610294077924 26.078911862806336) rotate(440.4484866054527)"><path class="outline" fill="#A5ABB6" stroke="none" d="M 40 1.5 L 50.31795523553845 1.5 L 50.31795523553845 -1.5 L 40 -1.5 Z M 74.55233023553845 1.5 L 84.8702854710769 1.5 L 84.8702854710769 4.5 L 93.8702854710769 0 L 84.8702854710769 -4.5 L 84.8702854710769 -1.5 L 74.55233023553845 -1.5 Z"/><text text-anchor="middle" pointer-events="none" font-size="8px" fill="#000000" x="62.43514273553845" y="3" font-family="sans-serif">route</text></g><g class="relationship" transform="translate(223.5997733187866 158.09332842571382) rotate(362.49626974866976)"><path class="outline" fill="#A5ABB6" stroke="none" d="M 40 1.5 L 66.67865099123246 1.5 L 66.67865099123246 -1.5 L 40 -1.5 Z M 90.91302599123246 1.5 L 117.59167698246492 1.5 L 117.59167698246492 4.5 L 126.59167698246492 0 L 117.59167698246492 -4.5 L 117.59167698246492 -1.5 L 90.91302599123246 -1.5 Z"/><text text-anchor="middle" pointer-events="none" font-size="8px" fill="#000000" x="78.79583849123246" y="3" font-family="sans-serif">route</text></g><g class="relationship" transform="translate(223.5997733187866 158.09332842571382) rotate(519.044069934961)"><path class="outline" fill="#A5ABB6" stroke="none" d="M 40 1.5 L 129.00895640969762 1.5 L 129.00895640969762 -1.5 L 40 -1.5 Z M 153.24333140969762 1.5 L 242.25228781939524 1.5 L 242.25228781939524 4.5 L 251.25228781939524 0 L 242.25228781939524 -4.5 L 242.25228781939524 -1.5 L 153.24333140969762 -1.5 Z"/><text text-anchor="middle" pointer-events="none" font-size="8px" fill="#000000" x="141.12614390969762" y="3" transform="rotate(180 141.12614390969762 0)" font-family="sans-serif">route</text></g><g class="relationship" transform="translate(-36.98278075317833 33.9197455596011) rotate(270.87817212717005)"><path class="outline" fill="#A5ABB6" stroke="none" d="M 40 1.5 L 56.28427258270139 1.5 L 56.28427258270139 -1.5 L 40 -1.5 Z M 80.51864758270139 1.5 L 96.80292016540278 1.5 L 96.80292016540278 4.5 L 105.80292016540278 0 L 96.80292016540278 -4.5 L 96.80292016540278 -1.5 L 80.51864758270139 -1.5 Z"/><text text-anchor="middle" pointer-events="none" font-size="8px" fill="#000000" x="68.40146008270139" y="3" font-family="sans-serif">route</text></g><g class="relationship" transform="translate(390.0333646806904 165.34911964437146) rotate(363.41358817146727)"><path class="outline" fill="#A5ABB6" stroke="none" d="M 40 1.5 L 61.96567454537238 1.5 L 61.96567454537238 -1.5 L 40 -1.5 Z M 86.20004954537238 1.5 L 108.16572409074476 1.5 L 108.16572409074476 4.5 L 117.16572409074476 0 L 108.16572409074476 -4.5 L 108.16572409074476 -1.5 L 86.20004954537238 -1.5 Z"/><text text-anchor="middle" pointer-events="none" font-size="8px" fill="#000000" x="74.08286204537238" y="3" font-family="sans-serif">route</text></g><g class="relationship" transform="translate(546.9202351045258 174.70725608186763) rotate(448.14269033846165)"><path class="outline" fill="#A5ABB6" stroke="none" d="M 40 1.5 L 41.85352195608325 1.5 L 41.85352195608325 -1.5 L 40 -1.5 Z M 66.08789695608326 1.5 L 67.9414189121665 1.5 L 67.9414189121665 4.5 L 76.9414189121665 0 L 67.9414189121665 -4.5 L 67.9414189121665 -1.5 L 66.08789695608326 -1.5 Z"/><text text-anchor="middle" pointer-events="none" font-size="8px" fill="#000000" x="53.97070945608325" y="3" font-family="sans-serif">route</text></g><g class="relationship" transform="translate(-230.40595678298175 130.4371834574826) rotate(279.02578617434403)"><path class="outline" fill="#A5ABB6" stroke="none" d="M 40 1.5 L 50.961356723455594 1.5 L 50.961356723455594 -1.5 L 40 -1.5 Z M 75.1957317234556 1.5 L 86.15708844691119 1.5 L 86.15708844691119 4.5 L 95.15708844691119 0 L 86.15708844691119 -4.5 L 86.15708844691119 -1.5 L 75.1957317234556 -1.5 Z"/><text text-anchor="middle" pointer-events="none" font-size="8px" fill="#000000" x="63.078544223455594" y="3" font-family="sans-serif">route</text></g><g class="relationship" transform="translate(-36.98278075317833 33.9197455596011) rotate(513.4809761842405)"><path class="outline" fill="#A5ABB6" stroke="none" d="M 40 1.5 L 91.46627659584092 1.5 L 91.46627659584092 -1.5 L 40 -1.5 Z M 115.70065159584092 1.5 L 167.16692819168185 1.5 L 167.16692819168185 4.5 L 176.16692819168185 0 L 167.16692819168185 -4.5 L 167.16692819168185 -1.5 L 115.70065159584092 -1.5 Z"/><text text-anchor="middle" pointer-events="none" font-size="8px" fill="#000000" x="103.58346409584092" y="3" transform="rotate(180 103.58346409584092 0)" font-family="sans-serif">route</text></g><g class="relationship" transform="translate(-48.387863340413574 262.25964094840396) rotate(215.91307892204856)"><path class="outline" fill="#A5ABB6" stroke="none" d="M 40 1.5 L 95.75245546398432 1.5 L 95.75245546398432 -1.5 L 40 -1.5 Z M 119.98683046398432 1.5 L 175.73928592796864 1.5 L 175.73928592796864 4.5 L 184.73928592796864 0 L 175.73928592796864 -4.5 L 175.73928592796864 -1.5 L 119.98683046398432 -1.5 Z"/><text text-anchor="middle" pointer-events="none" font-size="8px" fill="#000000" x="107.86964296398432" y="3" transform="rotate(180 107.86964296398432 0)" font-family="sans-serif">route</text></g><g class="relationship" transform="translate(-230.40595678298175 130.4371834574826) rotate(199.56758628093507)"><path class="outline" fill="#A5ABB6" stroke="none" d="M 40 1.5 L 76.27530968620812 1.5 L 76.27530968620812 -1.5 L 40 -1.5 Z M 100.50968468620812 1.5 L 136.78499437241624 1.5 L 136.78499437241624 4.5 L 145.78499437241624 0 L 136.78499437241624 -4.5 L 136.78499437241624 -1.5 L 100.50968468620812 -1.5 Z"/><text text-anchor="middle" pointer-events="none" font-size="8px" fill="#000000" x="88.39249718620812" y="3" transform="rotate(180 88.39249718620812 0)" font-family="sans-serif">route</text></g><g class="relationship" transform="translate(201.38610294077924 26.078911862806336) rotate(268.9726742113778)"><path class="outline" fill="#A5ABB6" stroke="none" d="M 40 1.5 L 115.64005876701654 1.5 L 115.64005876701654 -1.5 L 40 -1.5 Z M 139.87443376701654 1.5 L 215.51449253403308 1.5 L 215.51449253403308 4.5 L 224.51449253403308 0 L 215.51449253403308 -4.5 L 215.51449253403308 -1.5 L 139.87443376701654 -1.5 Z"/><text text-anchor="middle" pointer-events="none" font-size="8px" fill="#000000" x="127.75724626701654" y="3" transform="rotate(180 127.75724626701654 0)" font-family="sans-serif">route</text></g></g><g class="layer nodes"><g class="node" transform="translate(330.5388409855232,-5.503240445495862)"><circle class="outline" cx="0" cy="0" r="40" fill="#FF756E" stroke="#E06760" stroke-width="2px"/><text text-anchor="middle" pointer-events="none" font-family="sans-serif" dy="2.5" font-size="40" fill="#FFFFFF"/><text text-anchor="middle" pointer-events="none" y="5" font-size="10px" fill="#FFFFFF" font-family="sans-serif"> La souche</text></g><g class="node" transform="translate(201.38610294077924,26.078911862806336)"><circle class="outline" cx="0" cy="0" r="40" fill="#6DCE9E" stroke="#60B58B" stroke-width="2px"/><text text-anchor="middle" pointer-events="none" font-family="sans-serif" dy="2.5" font-size="40" fill="#FFFFFF"/><text text-anchor="middle" pointer-events="none" y="5" font-size="10px" fill="#FFFFFF" font-family="sans-serif"> Québec</text></g><g class="node" transform="translate(290.34879308568156,-103.64220488375028)"><circle class="outline" cx="0" cy="0" r="40" fill="#FF756E" stroke="#E06760" stroke-width="2px"/><text text-anchor="middle" pointer-events="none" font-family="sans-serif" dy="2.5" font-size="40" fill="#FFFFFF"/><text text-anchor="middle" pointer-events="none" y="5" font-size="10px" fill="#FFFFFF" font-family="sans-serif"> Le Noctem</text></g><g class="node" transform="translate(254.94337335249656,258.95873333258146)"><circle class="outline" cx="0" cy="0" r="40" fill="#FF756E" stroke="#E06760" stroke-width="2px"/><text text-anchor="middle" pointer-events="none" font-family="sans-serif" dy="2.5" font-size="40" fill="#FFFFFF"/><text text-anchor="middle" pointer-events="none" y="5" font-size="10px" fill="#FFFFFF" font-family="sans-serif"> Le corsaire</text></g><g class="node" transform="translate(223.5997733187866,158.09332842571382)"><circle class="outline" cx="0" cy="0" r="40" fill="#6DCE9E" stroke="#60B58B" stroke-width="2px"/><text text-anchor="middle" pointer-events="none" font-family="sans-serif" dy="2.5" font-size="40" fill="#FFFFFF"/><text text-anchor="middle" pointer-events="none" y="5" font-size="10px" fill="#FFFFFF" font-family="sans-serif"> Lévis</text></g><g class="node" transform="translate(-22.945255780046587,152.7319766381885)"><circle class="outline" cx="0" cy="0" r="40" fill="#FF756E" stroke="#E06760" stroke-width="2px"/><text text-anchor="middle" pointer-events="none" font-family="sans-serif" dy="2.5" font-size="40" fill="#FFFFFF"/><text text-anchor="middle" pointer-events="none" font-family="sans-serif" dy="2.5" font-size="40" fill="#FFFFFF"/><text text-anchor="middle" pointer-events="none" y="0" font-size="10px" fill="#FFFFFF" font-family="sans-serif"> Les Forges du</text><text text-anchor="middle" pointer-events="none" y="10" font-size="10px" fill="#FFFFFF" font-family="sans-serif"> malt</text></g><g class="node" transform="translate(-36.98278075317833,33.9197455596011)"><circle class="outline" cx="0" cy="0" r="40" fill="#6DCE9E" stroke="#60B58B" stroke-width="2px"/><text text-anchor="middle" pointer-events="none" font-family="sans-serif" dy="2.5" font-size="40" fill="#FFFFFF"/><text text-anchor="middle" pointer-events="none" y="5" font-size="10px" fill="#FFFFFF" font-family="sans-serif"> Trois-Rivières</text></g><g class="node" transform="translate(-26.184086901372496,-228.5635174923307)"><circle class="outline" cx="0" cy="0" r="40" fill="#FF756E" stroke="#E06760" stroke-width="2px"/><text text-anchor="middle" pointer-events="none" font-family="sans-serif" dy="2.5" font-size="40" fill="#FFFFFF"/><text text-anchor="middle" pointer-events="none" y="5" font-size="10px" fill="#FFFFFF" font-family="sans-serif"> Le trou du diable</text></g><g class="node" transform="translate(-34.74814761667433,-111.8660491650704)"><circle class="outline" cx="0" cy="0" r="40" fill="#6DCE9E" stroke="#60B58B" stroke-width="2px"/><text text-anchor="middle" pointer-events="none" font-family="sans-serif" dy="2.5" font-size="40" fill="#FFFFFF"/><text text-anchor="middle" pointer-events="none" y="5" font-size="10px" fill="#FFFFFF" font-family="sans-serif"> Shawinigan</text></g><g class="node" transform="translate(-188.21688380231217,-148.98421680229586)"><circle class="outline" cx="0" cy="0" r="40" fill="#FF756E" stroke="#E06760" stroke-width="2px"/><text text-anchor="middle" pointer-events="none" font-family="sans-serif" dy="2.5" font-size="40" fill="#FFFFFF"/><text text-anchor="middle" pointer-events="none" y="5" font-size="10px" fill="#FFFFFF" font-family="sans-serif"> Dieu du ciel</text></g><g class="node" transform="translate(-209.20265305142507,-3.0463678449663973)"><circle class="outline" cx="0" cy="0" r="40" fill="#6DCE9E" stroke="#60B58B" stroke-width="2px"/><text text-anchor="middle" pointer-events="none" font-family="sans-serif" dy="2.5" font-size="40" fill="#FFFFFF"/><text text-anchor="middle" pointer-events="none" y="5" font-size="10px" fill="#FFFFFF" font-family="sans-serif"> Saint-Jérôme</text></g><g class="node" transform="translate(-374.78165459424497,-44.082688166787186)"><circle class="outline" cx="0" cy="0" r="40" fill="#FF756E" stroke="#E06760" stroke-width="2px"/><text text-anchor="middle" pointer-events="none" font-family="sans-serif" dy="2.5" font-size="40" fill="#FFFFFF"/><text text-anchor="middle" pointer-events="none" y="5" font-size="10px" fill="#FFFFFF" font-family="sans-serif"> Le castor</text></g><g class="node" transform="translate(-405.4613244470361,68.21433889086467)"><circle class="outline" cx="0" cy="0" r="40" fill="#6DCE9E" stroke="#60B58B" stroke-width="2px"/><text text-anchor="middle" pointer-events="none" font-family="sans-serif" dy="2.5" font-size="40" fill="#FFFFFF"/><text text-anchor="middle" pointer-events="none" y="5" font-size="10px" fill="#FFFFFF" font-family="sans-serif"> Rigaud</text></g><g class="node" transform="translate(-43.772162854102405,398.1625631417498)"><circle class="outline" cx="0" cy="0" r="40" fill="#FF756E" stroke="#E06760" stroke-width="2px"/><text text-anchor="middle" pointer-events="none" font-family="sans-serif" dy="2.5" font-size="40" fill="#FFFFFF"/><text text-anchor="middle" pointer-events="none" y="5" font-size="10px" fill="#FFFFFF" font-family="sans-serif"> Bockale</text></g><g class="node" transform="translate(-48.387863340413574,262.25964094840396)"><circle class="outline" cx="0" cy="0" r="40" fill="#6DCE9E" stroke="#60B58B" stroke-width="2px"/><text text-anchor="middle" pointer-events="none" font-family="sans-serif" dy="2.5" font-size="40" fill="#FFFFFF"/><text text-anchor="middle" pointer-events="none" y="5" font-size="10px" fill="#FFFFFF" font-family="sans-serif"> Drummondville</text></g><g class="node" transform="translate(317.29781878833893,377.8201988001049)"><circle class="outline" cx="0" cy="0" r="40" fill="#FF756E" stroke="#E06760" stroke-width="2px"/><text text-anchor="middle" pointer-events="none" font-family="sans-serif" dy="2.5" font-size="40" fill="#FFFFFF"/><text text-anchor="middle" pointer-events="none" y="5" font-size="10px" fill="#FFFFFF" font-family="sans-serif"> La fabrique</text></g><g class="node" transform="translate(390.0333646806904,165.34911964437146)"><circle class="outline" cx="0" cy="0" r="40" fill="#6DCE9E" stroke="#60B58B" stroke-width="2px"/><text text-anchor="middle" pointer-events="none" font-family="sans-serif" dy="2.5" font-size="40" fill="#FFFFFF"/><text text-anchor="middle" pointer-events="none" y="5" font-size="10px" fill="#FFFFFF" font-family="sans-serif"> Matane</text></g><g class="node" transform="translate(574.4743692753361,81.5540376497317)"><circle class="outline" cx="0" cy="0" r="40" fill="#FF756E" stroke="#E06760" stroke-width="2px"/><text text-anchor="middle" pointer-events="none" font-family="sans-serif" dy="2.5" font-size="40" fill="#FFFFFF"/><text text-anchor="middle" pointer-events="none" y="5" font-size="10px" fill="#FFFFFF" font-family="sans-serif"> Pit Caribou</text></g><g class="node" transform="translate(546.9202351045258,174.70725608186763)"><circle class="outline" cx="0" cy="0" r="40" fill="#6DCE9E" stroke="#60B58B" stroke-width="2px"/><text text-anchor="middle" pointer-events="none" font-family="sans-serif" dy="2.5" font-size="40" fill="#FFFFFF"/><text text-anchor="middle" pointer-events="none" y="5" font-size="10px" fill="#FFFFFF" font-family="sans-serif"> Percé</text></g><g class="node" transform="translate(434.4734127719583,402.40161094715523)"><circle class="outline" cx="0" cy="0" r="40" fill="#FF756E" stroke="#E06760" stroke-width="2px"/><text text-anchor="middle" pointer-events="none" font-family="sans-serif" dy="2.5" font-size="40" fill="#FFFFFF"/><text text-anchor="middle" pointer-events="none" y="5" font-size="10px" fill="#FFFFFF" font-family="sans-serif"> Auval</text></g><g class="node" transform="translate(550.7103640180278,291.58723888478323)"><circle class="outline" cx="0" cy="0" r="40" fill="#6DCE9E" stroke="#60B58B" stroke-width="2px"/><text text-anchor="middle" pointer-events="none" font-family="sans-serif" dy="2.5" font-size="40" fill="#FFFFFF"/><text text-anchor="middle" pointer-events="none" y="5" font-size="10px" fill="#FFFFFF" font-family="sans-serif"> Val D'Espoir</text></g><g class="node" transform="translate(-230.40595678298175,130.4371834574826)"><circle class="outline" cx="0" cy="0" r="40" fill="#6DCE9E" stroke="#60B58B" stroke-width="2px"/><text text-anchor="middle" pointer-events="none" font-family="sans-serif" dy="2.5" font-size="40" fill="#FFFFFF"/><text text-anchor="middle" pointer-events="none" y="5" font-size="10px" fill="#FFFFFF" font-family="sans-serif"> Montréal</text></g><g class="node" transform="translate(196.64355468249056,-238.3930620712097)"><circle class="outline" cx="0" cy="0" r="40" fill="#6DCE9E" stroke="#60B58B" stroke-width="2px"/><text text-anchor="middle" pointer-events="none" font-family="sans-serif" dy="2.5" font-size="40" fill="#FFFFFF"/><text text-anchor="middle" pointer-events="none" y="5" font-size="10px" fill="#FFFFFF" font-family="sans-serif"> Stoneham</text></g></g></svg>